<?xml version="1.0" encoding="UTF-8" standalone="no"?>
<svg width="24px" height="40px" viewBox="0 0 24 40" version="1.1" xmlns="http://www.w3.org/2000/svg" xmlns:xlink="http://www.w3.org/1999/xlink">
    <!-- Generator: Sketch 47.1 (45422) - http://www.bohemiancoding.com/sketch -->
    <title>pictogram</title>
    <desc>Created with Sketch.</desc>
    <defs></defs>
    <g id="Page-1" stroke="none" stroke-width="1" fill="none" fill-rule="evenodd">
        <g id="pictogram" fill-rule="nonzero" fill="#000000">
            <g id="Shape">
                <path d="M7.8,17.3 C7.7,17.3 7.5,17.4 7.4,17.5 L5.1,19.8 C4.9,20 4.9,20.3 5.1,20.6 L7.3,22.8 C7.4,22.9 7.5,23 7.7,23 C7.8,23 8,22.9 8.1,22.8 C8.3,22.6 8.3,22.3 8.1,22 L6.3,20.2 L8.3,18.2 C8.5,18 8.5,17.7 8.3,17.4 C8.1,17.3 7.9,17.3 7.8,17.3 L7.8,17.3 Z M16.3,17.3 C16.2,17.3 16,17.4 15.9,17.5 C15.7,17.7 15.7,18 15.9,18.3 L17.9,20.3 L16,22 C15.8,22.2 15.8,22.5 16,22.8 C16.1,22.9 16.2,23 16.4,23 C16.5,23 16.7,22.9 16.8,22.8 L19,20.6 C19.2,20.4 19.2,20.1 19,19.8 L16.7,17.5 C16.5,17.3 16.4,17.3 16.3,17.3 L16.3,17.3 Z M13.8,18.1 C13.7,18.1 13.5,18.2 13.4,18.3 L10.1,21.6 C9.9,21.8 9.9,22.1 10.1,22.4 C10.2,22.5 10.3,22.6 10.5,22.6 C10.6,22.6 10.8,22.5 10.9,22.4 L14.2,19.1 C14.4,18.9 14.4,18.6 14.2,18.3 C14.1,18.1 13.9,18.1 13.8,18.1 Z"></path>
                <path d="M20,0 L4,0 C1.8,0 0,1.8 0,4 L0,36 C0,38.2 1.8,40 4,40 L20,40 C22.2,40 24,38.2 24,36 L24,4 C24,1.8 22.2,0 20,0 Z M2.1,7.1 L2.1,4 C2.1,3 2.9,2.1 4,2.1 L20,2.1 C21,2.1 21.9,2.9 21.9,4 L21.9,7.1 L2.1,7.1 Z M2.1,32.7 L2.1,7.9 L21.8,7.9 L21.8,32.7 L2.1,32.7 Z M4,37.9 C3,37.9 2.1,37.1 2.1,36 L2.1,33.5 L21.8,33.5 L21.8,36 C21.8,37 21,37.9 19.9,37.9 L4,37.9 L4,37.9 Z"></path>
                <path d="M5,3.6 C4.4,3.6 4,4 4,4.6 C4,5.2 4.4,5.6 5,5.6 C5.6,5.6 6,5.2 6,4.6 C6,4 5.6,3.6 5,3.6 Z M7.7,3.6 C7.1,3.6 6.7,4 6.7,4.6 C6.7,5.2 7.1,5.6 7.7,5.6 C8.3,5.6 8.7,5.2 8.7,4.6 C8.7,4 8.2,3.6 7.7,3.6 Z M10.5,3.6 C9.9,3.6 9.5,4 9.5,4.6 C9.5,5.2 9.9,5.6 10.5,5.6 C11.1,5.6 11.5,5.2 11.5,4.6 C11.5,4 11,3.6 10.5,3.6 Z M14.1,34.5 C13.5,34.5 13.1,34.9 13.1,35.5 C13.1,36.1 13.5,36.5 14.1,36.5 C14.7,36.5 15.1,36.1 15.1,35.5 C15.1,34.9 14.6,34.5 14.1,34.5 Z M16.7,34.5 C16.1,34.5 15.7,34.9 15.7,35.5 C15.7,36.1 16.1,36.5 16.7,36.5 C17.3,36.5 17.7,36.1 17.7,35.5 C17.7,34.9 17.3,34.5 16.7,34.5 Z M19.5,34.5 C18.9,34.5 18.5,34.9 18.5,35.5 C18.5,36.1 18.9,36.5 19.5,36.5 C20.1,36.5 20.5,36.1 20.5,35.5 C20.5,34.9 20.1,34.5 19.5,34.5 L19.5,34.5 Z"></path>
            </g>
        </g>
    </g>
</svg>
