<svg xmlns="http://www.w3.org/2000/svg" viewBox="0 0 175 30">
  <g fill="#FF7143" fill-rule="evenodd">
    <path d="M69.35 18.084l.024.076c.034 1.735-.575 3.187-1.828 4.355-1.253 1.168-2.907 1.752-4.964 1.752-2.09 0-3.794-.74-5.11-2.222-1.316-1.48-1.974-3.36-1.974-5.637V13.12c0-2.277.658-4.158 1.974-5.643 1.316-1.485 3.02-2.228 5.11-2.228 2.09 0 3.754.555 4.99 1.668 1.235 1.113 1.836 2.588 1.802 4.425l-.025.076h-2.4c0-1.296-.382-2.32-1.143-3.073-.762-.754-1.837-1.13-3.225-1.13-1.396 0-2.51.563-3.34 1.688C58.415 10.03 58 11.427 58 13.095v3.313c0 1.684.414 3.09 1.243 4.215.83 1.126 1.943 1.69 3.34 1.69 1.387 0 2.462-.376 3.224-1.125.76-.75 1.142-1.784 1.142-3.104h2.4zM80.723 24c-.085-.415-.15-.78-.197-1.098-.047-.318-.074-.637-.083-.96-.465.662-1.072 1.214-1.82 1.658-.75.444-1.557.667-2.42.667-1.43 0-2.52-.366-3.27-1.1-.748-.73-1.122-1.74-1.122-3.026 0-1.31.53-2.337 1.593-3.078 1.062-.74 2.503-1.11 4.323-1.11h2.716v-1.36c0-.803-.245-1.44-.736-1.91-.49-.47-1.185-.704-2.082-.704-.813 0-1.468.203-1.968.61-.5.405-.75.892-.75 1.46l-2.373.024-.025-.076c-.06-1 .408-1.913 1.403-2.742.994-.83 2.278-1.244 3.853-1.244 1.557 0 2.81.395 3.757 1.187.948.79 1.422 1.932 1.422 3.42v6.615c0 .49.026.965.076 1.422.052.457.145.906.28 1.346h-2.576zm-4.152-1.828c.906 0 1.723-.233 2.45-.698.728-.466 1.202-1 1.422-1.6V17.64H77.64c-1.008 0-1.815.254-2.42.76-.605.51-.907 1.106-.907 1.79 0 .61.19 1.093.57 1.45.382.354.944.532 1.69.532zm16.504-9.7l-1.282-.076c-.66 0-1.217.157-1.67.47-.452.313-.8.753-1.047 1.32V24h-2.5V10.264h2.234l.242 2.006c.39-.71.87-1.266 1.44-1.664.572-.397 1.23-.596 1.975-.596.186 0 .364.015.533.044.17.03.31.062.42.095l-.344 2.323zm2.03 4.914c0-2.21.473-3.99 1.417-5.345.944-1.353 2.266-2.03 3.967-2.03.804 0 1.517.148 2.14.444.62.296 1.153.728 1.593 1.295V4.194h2.5V24h-1.916l-.38-1.74c-.45.66-1.004 1.16-1.664 1.5-.66.337-1.426.507-2.298.507-1.676 0-2.988-.608-3.936-1.822-.95-1.215-1.423-2.812-1.423-4.793v-.266zm2.502.266c0 1.388.284 2.5.85 3.333.568.834 1.448 1.25 2.642 1.25.744 0 1.37-.17 1.88-.507.506-.34.92-.813 1.243-1.422v-6.41c-.322-.57-.74-1.02-1.25-1.354-.513-.334-1.13-.5-1.848-.5-1.202 0-2.088.494-2.66 1.484-.57.99-.857 2.277-.857 3.86v.266zm24.58 0c0 1.98-.478 3.578-1.43 4.793-.952 1.214-2.262 1.822-3.93 1.822-.913 0-1.706-.18-2.38-.54-.672-.36-1.23-.89-1.67-1.593L112.374 24h-1.917V4.195h2.5v7.694c.433-.61.968-1.076 1.607-1.398.64-.32 1.386-.482 2.24-.482 1.693 0 3.014.677 3.962 2.03.948 1.355 1.422 3.137 1.422 5.346v.266zm-2.502-.266c0-1.574-.29-2.86-.87-3.853-.58-.995-1.462-1.492-2.647-1.492-.77 0-1.42.19-1.95.566-.53.377-.95.882-1.263 1.517v5.954c.322.677.743 1.206 1.263 1.587.52.38 1.18.57 1.974.57 1.177 0 2.053-.418 2.628-1.255.576-.84.864-1.948.864-3.328v-.266zm4.963-.38c0-2.032.55-3.706 1.65-5.022 1.1-1.316 2.594-1.974 4.48-1.974 1.906 0 3.41.656 4.514 1.968 1.105 1.31 1.657 2.987 1.657 5.027v.28c0 2.047-.55 3.723-1.65 5.027-1.1 1.303-2.598 1.955-4.493 1.955-1.896 0-3.396-.654-4.5-1.962-1.105-1.307-1.658-2.98-1.658-5.02v-.28zm2.5.278c0 1.456.307 2.658.92 3.606.614.948 1.526 1.422 2.737 1.422 1.193 0 2.1-.474 2.716-1.422.618-.948.927-2.15.927-3.606v-.28c0-1.438-.31-2.636-.933-3.592-.622-.956-1.534-1.434-2.736-1.434-1.192 0-2.096.478-2.71 1.434-.613.956-.92 2.154-.92 3.593v.28zM148.453 24c-.085-.415-.15-.78-.197-1.098-.046-.318-.074-.637-.082-.96-.466.662-1.073 1.214-1.822 1.658-.75.444-1.555.667-2.418.667-1.43 0-2.52-.366-3.27-1.1-.748-.73-1.123-1.74-1.123-3.026 0-1.31.532-2.337 1.594-3.078 1.062-.74 2.503-1.11 4.323-1.11h2.717v-1.36c0-.803-.246-1.44-.737-1.91-.49-.47-1.184-.704-2.082-.704-.812 0-1.468.203-1.967.61-.5.405-.75.892-.75 1.46l-2.373.024-.026-.076c-.06-1 .408-1.913 1.402-2.742.995-.83 2.28-1.244 3.853-1.244 1.557 0 2.81.395 3.758 1.187.948.79 1.422 1.932 1.422 3.42v6.615c0 .49.025.965.076 1.422.052.457.145.906.28 1.346h-2.577zm-4.15-1.828c.904 0 1.72-.233 2.45-.698.727-.466 1.2-1 1.42-1.6V17.64h-2.805c-1.007 0-1.813.254-2.418.76-.605.51-.908 1.106-.908 1.79 0 .61.19 1.093.57 1.45.382.354.945.532 1.69.532zm16.503-9.7l-1.283-.076c-.66 0-1.216.157-1.67.47-.452.313-.8.753-1.046 1.32V24h-2.5V10.264h2.233l.24 2.006c.39-.71.87-1.266 1.442-1.664.57-.397 1.23-.596 1.974-.596.186 0 .364.015.533.044.17.03.308.062.418.095l-.342 2.323zm2.03 4.914c0-2.21.473-3.99 1.416-5.345.944-1.353 2.267-2.03 3.968-2.03.804 0 1.517.148 2.14.444.62.296 1.152.728 1.592 1.295V4.194h2.5V24h-1.916l-.38-1.74c-.45.66-1.004 1.16-1.664 1.5-.66.337-1.426.507-2.298.507-1.675 0-2.987-.608-3.935-1.822-.95-1.215-1.423-2.812-1.423-4.793v-.266zm2.502.266c0 1.388.283 2.5.85 3.333.568.834 1.448 1.25 2.64 1.25.746 0 1.372-.17 1.88-.507.508-.34.923-.813 1.244-1.422v-6.41c-.32-.57-.738-1.02-1.25-1.354-.512-.334-1.128-.5-1.848-.5-1.2 0-2.088.494-2.66 1.484-.57.99-.856 2.277-.856 3.86v.266zM32.708 19.717c-2.755 0-4.985-2.18-4.985-4.87 0-2.692 2.23-4.873 4.985-4.873 2.755 0 4.988 2.18 4.988 4.872 0 2.692-2.233 4.87-4.988 4.87m-20.414 0c-2.757 0-4.99-2.175-4.99-4.87 0-2.695 2.233-4.874 4.99-4.874s4.984 2.18 4.984 4.874c0 2.693-2.232 4.872-4.984 4.872M42.17 1H2.712C1.242 1 0 2.212 0 3.71v22.274c0 1.497 1.24 2.708 2.77 2.708H13.55c1.154 0 2.146-.692 2.56-1.673l3.134-7.4c.528-1.245 1.786-2.128 3.254-2.128s2.726.878 3.254 2.124l3.133 7.396c.418.986 1.407 1.675 2.506 1.675H42.17c1.593 0 2.83-1.21 2.83-2.71V3.71C45 2.21 43.76 1 42.17 1"/>
  </g>
</svg>
